<?xml version="1.0" standalone="no"?>
<!DOCTYPE svg PUBLIC "-//W3C//DTD SVG 20010904//EN"
 "http://www.w3.org/TR/2001/REC-SVG-20010904/DTD/svg10.dtd">
<svg version="1.0" xmlns="http://www.w3.org/2000/svg"
 width="400.000000pt" height="400.000000pt" viewBox="0 0 400.000000 400.000000"
 preserveAspectRatio="xMidYMid meet">
<metadata>
Created by potrace 1.14, written by Peter Selinger 2001-2017
</metadata>
<g transform="translate(0.000000,400.000000) scale(0.100000,-0.100000)"
fill="#000000" stroke="none">
<path d="M603 2712 c-13 -2 -23 -6 -23 -10 0 -4 243 -250 540 -547 l540 -540
540 540 c297 297 540 543 540 547 0 5 -96 8 -214 8 l-214 0 -157 -157 -157
-156 -156 156 -157 156 -213 1 c-118 1 -217 -1 -220 -5 -3 -3 112 -124 257
-269 l263 -263 -39 -39 c-77 -79 -36 -105 -397 255 l-322 322 -194 2 c-107 1
-205 1 -217 -1z"/>
<path d="M2881 2608 l-101 -103 110 -110 110 -110 205 205 c113 113 205 208
205 212 0 5 -96 8 -214 8 l-214 0 -101 -102z"/>
<path d="M2220 1945 l-445 -445 105 -105 c58 -58 109 -105 115 -105 5 0 83 73
172 162 l163 163 163 -163 162 -162 218 0 c129 0 217 4 217 9 0 6 -8 16 -17
24 -10 7 -130 127 -268 265 l-250 252 163 163 c89 89 162 167 162 172 0 9
-203 215 -211 215 -2 0 -204 -200 -449 -445z"/>
</g>
</svg>
